<svg width="571" height="571" viewBox="0 0 571 571" fill="none" xmlns="http://www.w3.org/2000/svg">
<line x1="4" y1="176" x2="567" y2="176" stroke="black" stroke-width="8" stroke-linecap="round"/>
<line x1="401.5" y1="4" x2="401.5" y2="567" stroke="black" stroke-width="8" stroke-linecap="round"/>
<line x1="4" y1="208" x2="567" y2="208" stroke="black" stroke-width="8" stroke-linecap="round"/>
<line x1="369.5" y1="4" x2="369.5" y2="567" stroke="black" stroke-width="8" stroke-linecap="round"/>
<line x1="4" y1="240" x2="567" y2="240" stroke="black" stroke-width="8" stroke-linecap="round"/>
<line x1="337.5" y1="4" x2="337.5" y2="567" stroke="black" stroke-width="8" stroke-linecap="round"/>
<line x1="4" y1="272" x2="567" y2="272" stroke="black" stroke-width="8" stroke-linecap="round"/>
<line x1="305.5" y1="4" x2="305.5" y2="567" stroke="black" stroke-width="8" stroke-linecap="round"/>
<line x1="4" y1="304" x2="567" y2="304" stroke="black" stroke-width="8" stroke-linecap="round"/>
<line x1="273.5" y1="4" x2="273.5" y2="567" stroke="black" stroke-width="8" stroke-linecap="round"/>
<line x1="4" y1="336" x2="567" y2="336" stroke="black" stroke-width="8" stroke-linecap="round"/>
<line x1="241.5" y1="4" x2="241.5" y2="567" stroke="black" stroke-width="8" stroke-linecap="round"/>
<line x1="4" y1="368" x2="567" y2="368" stroke="black" stroke-width="8" stroke-linecap="round"/>
<line x1="209.5" y1="4" x2="209.5" y2="567" stroke="black" stroke-width="8" stroke-linecap="round"/>
<line x1="4" y1="400" x2="567" y2="400" stroke="black" stroke-width="8" stroke-linecap="round"/>
<line x1="177.5" y1="4" x2="177.5" y2="567" stroke="black" stroke-width="8" stroke-linecap="round"/>
<rect x="33" y="32" width="506" height="506" rx="89" fill="#0B3F8D" stroke="black" stroke-width="10"/>
<mask id="mask0_657_255" style="mask-type:alpha" maskUnits="userSpaceOnUse" x="28" y="27" width="516" height="516">
<rect x="33" y="32" width="506" height="506" rx="89" fill="#112B66" stroke="black" stroke-width="10"/>
</mask>
<g mask="url(#mask0_657_255)">
<rect x="8.90002" y="17.9" width="43.2667" height="43.2667" stroke="white" stroke-opacity="0.2"/>
<rect x="53.1667" y="17.9" width="43.2667" height="43.2667" stroke="white" stroke-opacity="0.2"/>
<rect x="97.4332" y="17.9" width="43.2667" height="43.2667" stroke="white" stroke-opacity="0.2"/>
<rect x="141.7" y="17.9" width="43.2667" height="43.2667" stroke="white" stroke-opacity="0.2"/>
<rect x="185.967" y="17.9" width="43.2667" height="43.2667" stroke="white" stroke-opacity="0.2"/>
<rect x="230.233" y="17.9" width="43.2667" height="43.2667" stroke="white" stroke-opacity="0.2"/>
<rect x="274.5" y="17.9" width="43.2667" height="43.2667" stroke="white" stroke-opacity="0.2"/>
<rect x="318.767" y="17.9" width="43.2667" height="43.2667" stroke="white" stroke-opacity="0.2"/>
<rect x="363.033" y="17.9" width="43.2667" height="43.2667" stroke="white" stroke-opacity="0.2"/>
<rect x="407.3" y="17.9" width="43.2667" height="43.2667" stroke="white" stroke-opacity="0.2"/>
<rect x="451.567" y="17.9" width="43.2667" height="43.2667" stroke="white" stroke-opacity="0.2"/>
<rect x="495.833" y="17.9" width="43.2667" height="43.2667" stroke="white" stroke-opacity="0.2"/>
<rect x="540.1" y="17.9" width="43.2667" height="43.2667" stroke="white" stroke-opacity="0.2"/>
<rect x="8.90002" y="62.1667" width="43.2667" height="43.2667" stroke="white" stroke-opacity="0.2"/>
<rect x="53.1667" y="62.1667" width="43.2667" height="43.2667" stroke="white" stroke-opacity="0.2"/>
<rect x="97.4332" y="62.1667" width="43.2667" height="43.2667" stroke="white" stroke-opacity="0.2"/>
<rect x="141.7" y="62.1667" width="43.2667" height="43.2667" stroke="white" stroke-opacity="0.2"/>
<rect x="185.967" y="62.1667" width="43.2667" height="43.2667" stroke="white" stroke-opacity="0.2"/>
<rect x="230.233" y="62.1667" width="43.2667" height="43.2667" stroke="white" stroke-opacity="0.2"/>
<rect x="274.5" y="62.1667" width="43.2667" height="43.2667" stroke="white" stroke-opacity="0.2"/>
<rect x="318.767" y="62.1667" width="43.2667" height="43.2667" stroke="white" stroke-opacity="0.2"/>
<rect x="363.033" y="62.1667" width="43.2667" height="43.2667" stroke="white" stroke-opacity="0.2"/>
<rect x="407.3" y="62.1667" width="43.2667" height="43.2667" stroke="white" stroke-opacity="0.2"/>
<rect x="451.567" y="62.1667" width="43.2667" height="43.2667" stroke="white" stroke-opacity="0.2"/>
<rect x="495.833" y="62.1667" width="43.2667" height="43.2667" stroke="white" stroke-opacity="0.2"/>
<rect x="540.1" y="62.1667" width="43.2667" height="43.2667" stroke="white" stroke-opacity="0.2"/>
<rect x="8.90002" y="106.433" width="43.2667" height="43.2667" stroke="white" stroke-opacity="0.2"/>
<rect x="53.1667" y="106.433" width="43.2667" height="43.2667" stroke="white" stroke-opacity="0.2"/>
<rect x="97.4332" y="106.433" width="43.2667" height="43.2667" stroke="white" stroke-opacity="0.2"/>
<rect x="141.7" y="106.433" width="43.2667" height="43.2667" stroke="white" stroke-opacity="0.2"/>
<rect x="185.967" y="106.433" width="43.2667" height="43.2667" stroke="white" stroke-opacity="0.2"/>
<rect x="230.233" y="106.433" width="43.2667" height="43.2667" stroke="white" stroke-opacity="0.2"/>
<rect x="274.5" y="106.433" width="43.2667" height="43.2667" stroke="white" stroke-opacity="0.2"/>
<rect x="318.767" y="106.433" width="43.2667" height="43.2667" stroke="white" stroke-opacity="0.2"/>
<rect x="363.033" y="106.433" width="43.2667" height="43.2667" stroke="white" stroke-opacity="0.2"/>
<rect x="407.3" y="106.433" width="43.2667" height="43.2667" stroke="white" stroke-opacity="0.2"/>
<rect x="451.567" y="106.433" width="43.2667" height="43.2667" stroke="white" stroke-opacity="0.2"/>
<rect x="495.833" y="106.433" width="43.2667" height="43.2667" stroke="white" stroke-opacity="0.2"/>
<rect x="540.1" y="106.433" width="43.2667" height="43.2667" stroke="white" stroke-opacity="0.2"/>
<rect x="8.90002" y="150.7" width="43.2667" height="43.2667" stroke="white" stroke-opacity="0.2"/>
<rect x="53.1667" y="150.7" width="43.2667" height="43.2667" stroke="white" stroke-opacity="0.2"/>
<rect x="97.4332" y="150.7" width="43.2667" height="43.2667" stroke="white" stroke-opacity="0.2"/>
<rect x="141.7" y="150.7" width="43.2667" height="43.2667" stroke="white" stroke-opacity="0.2"/>
<rect x="185.967" y="150.7" width="43.2667" height="43.2667" stroke="white" stroke-opacity="0.2"/>
<rect x="230.233" y="150.7" width="43.2667" height="43.2667" stroke="white" stroke-opacity="0.2"/>
<rect x="274.5" y="150.7" width="43.2667" height="43.2667" stroke="white" stroke-opacity="0.2"/>
<rect x="318.767" y="150.7" width="43.2667" height="43.2667" stroke="white" stroke-opacity="0.2"/>
<rect x="363.033" y="150.7" width="43.2667" height="43.2667" stroke="white" stroke-opacity="0.2"/>
<rect x="407.3" y="150.7" width="43.2667" height="43.2667" stroke="white" stroke-opacity="0.2"/>
<rect x="451.567" y="150.7" width="43.2667" height="43.2667" stroke="white" stroke-opacity="0.2"/>
<rect x="495.833" y="150.7" width="43.2667" height="43.2667" stroke="white" stroke-opacity="0.2"/>
<rect x="540.1" y="150.7" width="43.2667" height="43.2667" stroke="white" stroke-opacity="0.2"/>
<rect x="8.90002" y="194.967" width="43.2667" height="43.2667" stroke="white" stroke-opacity="0.2"/>
<rect x="53.1667" y="194.967" width="43.2667" height="43.2667" stroke="white" stroke-opacity="0.2"/>
<rect x="97.4332" y="194.967" width="43.2667" height="43.2667" stroke="white" stroke-opacity="0.2"/>
<rect x="141.7" y="194.967" width="43.2667" height="43.2667" stroke="white" stroke-opacity="0.2"/>
<rect x="185.967" y="194.967" width="43.2667" height="43.2667" stroke="white" stroke-opacity="0.2"/>
<rect x="230.233" y="194.967" width="43.2667" height="43.2667" stroke="white" stroke-opacity="0.2"/>
<rect x="274.5" y="194.967" width="43.2667" height="43.2667" stroke="white" stroke-opacity="0.2"/>
<rect x="318.767" y="194.967" width="43.2667" height="43.2667" stroke="white" stroke-opacity="0.2"/>
<rect x="363.033" y="194.967" width="43.2667" height="43.2667" stroke="white" stroke-opacity="0.2"/>
<rect x="407.3" y="194.967" width="43.2667" height="43.2667" stroke="white" stroke-opacity="0.2"/>
<rect x="451.567" y="194.967" width="43.2667" height="43.2667" stroke="white" stroke-opacity="0.2"/>
<rect x="495.833" y="194.967" width="43.2667" height="43.2667" stroke="white" stroke-opacity="0.2"/>
<rect x="540.1" y="194.967" width="43.2667" height="43.2667" stroke="white" stroke-opacity="0.2"/>
<rect x="8.90002" y="239.233" width="43.2667" height="43.2667" stroke="white" stroke-opacity="0.2"/>
<rect x="53.1667" y="239.233" width="43.2667" height="43.2667" stroke="white" stroke-opacity="0.2"/>
<rect x="97.4332" y="239.233" width="43.2667" height="43.2667" stroke="white" stroke-opacity="0.2"/>
<rect x="141.7" y="239.233" width="43.2667" height="43.2667" stroke="white" stroke-opacity="0.2"/>
<rect x="185.967" y="239.233" width="43.2667" height="43.2667" stroke="white" stroke-opacity="0.2"/>
<rect x="230.233" y="239.233" width="43.2667" height="43.2667" stroke="white" stroke-opacity="0.2"/>
<rect x="274.5" y="239.233" width="43.2667" height="43.2667" stroke="white" stroke-opacity="0.2"/>
<rect x="318.767" y="239.233" width="43.2667" height="43.2667" stroke="white" stroke-opacity="0.2"/>
<rect x="363.033" y="239.233" width="43.2667" height="43.2667" stroke="white" stroke-opacity="0.2"/>
<rect x="407.3" y="239.233" width="43.2667" height="43.2667" stroke="white" stroke-opacity="0.2"/>
<rect x="451.567" y="239.233" width="43.2667" height="43.2667" stroke="white" stroke-opacity="0.2"/>
<rect x="495.833" y="239.233" width="43.2667" height="43.2667" stroke="white" stroke-opacity="0.2"/>
<rect x="540.1" y="239.233" width="43.2667" height="43.2667" stroke="white" stroke-opacity="0.2"/>
<rect x="8.90002" y="283.5" width="43.2667" height="43.2667" stroke="white" stroke-opacity="0.2"/>
<rect x="53.1667" y="283.5" width="43.2667" height="43.2667" stroke="white" stroke-opacity="0.2"/>
<rect x="97.4332" y="283.5" width="43.2667" height="43.2667" stroke="white" stroke-opacity="0.2"/>
<rect x="141.7" y="283.5" width="43.2667" height="43.2667" stroke="white" stroke-opacity="0.2"/>
<rect x="185.967" y="283.5" width="43.2667" height="43.2667" stroke="white" stroke-opacity="0.2"/>
<rect x="230.233" y="283.5" width="43.2667" height="43.2667" stroke="white" stroke-opacity="0.2"/>
<rect x="274.5" y="283.5" width="43.2667" height="43.2667" stroke="white" stroke-opacity="0.2"/>
<rect x="318.767" y="283.5" width="43.2667" height="43.2667" stroke="white" stroke-opacity="0.2"/>
<rect x="363.033" y="283.5" width="43.2667" height="43.2667" stroke="white" stroke-opacity="0.2"/>
<rect x="407.3" y="283.5" width="43.2667" height="43.2667" stroke="white" stroke-opacity="0.2"/>
<rect x="451.567" y="283.5" width="43.2667" height="43.2667" stroke="white" stroke-opacity="0.2"/>
<rect x="495.833" y="283.5" width="43.2667" height="43.2667" stroke="white" stroke-opacity="0.2"/>
<rect x="540.1" y="283.5" width="43.2667" height="43.2667" stroke="white" stroke-opacity="0.2"/>
<rect x="8.90002" y="327.767" width="43.2667" height="43.2667" stroke="white" stroke-opacity="0.2"/>
<rect x="53.1667" y="327.767" width="43.2667" height="43.2667" stroke="white" stroke-opacity="0.2"/>
<rect x="97.4332" y="327.767" width="43.2667" height="43.2667" stroke="white" stroke-opacity="0.2"/>
<rect x="141.7" y="327.767" width="43.2667" height="43.2667" stroke="white" stroke-opacity="0.2"/>
<rect x="185.967" y="327.767" width="43.2667" height="43.2667" stroke="white" stroke-opacity="0.2"/>
<rect x="230.233" y="327.767" width="43.2667" height="43.2667" stroke="white" stroke-opacity="0.2"/>
<rect x="274.5" y="327.767" width="43.2667" height="43.2667" stroke="white" stroke-opacity="0.2"/>
<rect x="318.767" y="327.767" width="43.2667" height="43.2667" stroke="white" stroke-opacity="0.2"/>
<rect x="363.033" y="327.767" width="43.2667" height="43.2667" stroke="white" stroke-opacity="0.2"/>
<rect x="407.3" y="327.767" width="43.2667" height="43.2667" stroke="white" stroke-opacity="0.2"/>
<rect x="451.567" y="327.767" width="43.2667" height="43.2667" stroke="white" stroke-opacity="0.2"/>
<rect x="495.833" y="327.767" width="43.2667" height="43.2667" stroke="white" stroke-opacity="0.2"/>
<rect x="540.1" y="327.767" width="43.2667" height="43.2667" stroke="white" stroke-opacity="0.2"/>
<rect x="8.90002" y="372.033" width="43.2667" height="43.2667" stroke="white" stroke-opacity="0.2"/>
<rect x="53.1667" y="372.033" width="43.2667" height="43.2667" stroke="white" stroke-opacity="0.2"/>
<rect x="97.4332" y="372.033" width="43.2667" height="43.2667" stroke="white" stroke-opacity="0.2"/>
<rect x="141.7" y="372.033" width="43.2667" height="43.2667" stroke="white" stroke-opacity="0.2"/>
<rect x="185.967" y="372.033" width="43.2667" height="43.2667" stroke="white" stroke-opacity="0.2"/>
<rect x="230.233" y="372.033" width="43.2667" height="43.2667" stroke="white" stroke-opacity="0.2"/>
<rect x="274.5" y="372.033" width="43.2667" height="43.2667" stroke="white" stroke-opacity="0.2"/>
<rect x="318.767" y="372.033" width="43.2667" height="43.2667" stroke="white" stroke-opacity="0.2"/>
<rect x="363.033" y="372.033" width="43.2667" height="43.2667" stroke="white" stroke-opacity="0.2"/>
<rect x="407.3" y="372.033" width="43.2667" height="43.2667" stroke="white" stroke-opacity="0.2"/>
<rect x="451.567" y="372.033" width="43.2667" height="43.2667" stroke="white" stroke-opacity="0.2"/>
<rect x="495.833" y="372.033" width="43.2667" height="43.2667" stroke="white" stroke-opacity="0.2"/>
<rect x="540.1" y="372.033" width="43.2667" height="43.2667" stroke="white" stroke-opacity="0.2"/>
<rect x="8.90002" y="416.3" width="43.2667" height="43.2667" stroke="white" stroke-opacity="0.2"/>
<rect x="53.1667" y="416.3" width="43.2667" height="43.2667" stroke="white" stroke-opacity="0.2"/>
<rect x="97.4332" y="416.3" width="43.2667" height="43.2667" stroke="white" stroke-opacity="0.2"/>
<rect x="141.7" y="416.3" width="43.2667" height="43.2667" stroke="white" stroke-opacity="0.2"/>
<rect x="185.967" y="416.3" width="43.2667" height="43.2667" stroke="white" stroke-opacity="0.2"/>
<rect x="230.233" y="416.3" width="43.2667" height="43.2667" stroke="white" stroke-opacity="0.2"/>
<rect x="274.5" y="416.3" width="43.2667" height="43.2667" stroke="white" stroke-opacity="0.2"/>
<rect x="318.767" y="416.3" width="43.2667" height="43.2667" stroke="white" stroke-opacity="0.2"/>
<rect x="363.033" y="416.3" width="43.2667" height="43.2667" stroke="white" stroke-opacity="0.2"/>
<rect x="407.3" y="416.3" width="43.2667" height="43.2667" stroke="white" stroke-opacity="0.2"/>
<rect x="451.567" y="416.3" width="43.2667" height="43.2667" stroke="white" stroke-opacity="0.2"/>
<rect x="495.833" y="416.3" width="43.2667" height="43.2667" stroke="white" stroke-opacity="0.2"/>
<rect x="540.1" y="416.3" width="43.2667" height="43.2667" stroke="white" stroke-opacity="0.2"/>
<rect x="8.90002" y="460.567" width="43.2667" height="43.2667" stroke="white" stroke-opacity="0.2"/>
<rect x="53.1667" y="460.567" width="43.2667" height="43.2667" stroke="white" stroke-opacity="0.2"/>
<rect x="97.4332" y="460.567" width="43.2667" height="43.2667" stroke="white" stroke-opacity="0.2"/>
<rect x="141.7" y="460.567" width="43.2667" height="43.2667" stroke="white" stroke-opacity="0.2"/>
<rect x="185.967" y="460.567" width="43.2667" height="43.2667" stroke="white" stroke-opacity="0.2"/>
<rect x="230.233" y="460.567" width="43.2667" height="43.2667" stroke="white" stroke-opacity="0.2"/>
<rect x="274.5" y="460.567" width="43.2667" height="43.2667" stroke="white" stroke-opacity="0.2"/>
<rect x="318.767" y="460.567" width="43.2667" height="43.2667" stroke="white" stroke-opacity="0.2"/>
<rect x="363.033" y="460.567" width="43.2667" height="43.2667" stroke="white" stroke-opacity="0.2"/>
<rect x="407.3" y="460.567" width="43.2667" height="43.2667" stroke="white" stroke-opacity="0.2"/>
<rect x="451.567" y="460.567" width="43.2667" height="43.2667" stroke="white" stroke-opacity="0.2"/>
<rect x="495.833" y="460.567" width="43.2667" height="43.2667" stroke="white" stroke-opacity="0.2"/>
<rect x="540.1" y="460.567" width="43.2667" height="43.2667" stroke="white" stroke-opacity="0.2"/>
<rect x="8.90002" y="504.833" width="43.2667" height="43.2667" stroke="white" stroke-opacity="0.2"/>
<rect x="53.1667" y="504.833" width="43.2667" height="43.2667" stroke="white" stroke-opacity="0.2"/>
<rect x="97.4332" y="504.833" width="43.2667" height="43.2667" stroke="white" stroke-opacity="0.2"/>
<rect x="141.7" y="504.833" width="43.2667" height="43.2667" stroke="white" stroke-opacity="0.2"/>
<rect x="185.967" y="504.833" width="43.2667" height="43.2667" stroke="white" stroke-opacity="0.2"/>
<rect x="230.233" y="504.833" width="43.2667" height="43.2667" stroke="white" stroke-opacity="0.2"/>
<rect x="274.5" y="504.833" width="43.2667" height="43.2667" stroke="white" stroke-opacity="0.2"/>
<rect x="318.767" y="504.833" width="43.2667" height="43.2667" stroke="white" stroke-opacity="0.2"/>
<rect x="363.033" y="504.833" width="43.2667" height="43.2667" stroke="white" stroke-opacity="0.2"/>
<rect x="407.3" y="504.833" width="43.2667" height="43.2667" stroke="white" stroke-opacity="0.2"/>
<rect x="451.567" y="504.833" width="43.2667" height="43.2667" stroke="white" stroke-opacity="0.2"/>
<rect x="495.833" y="504.833" width="43.2667" height="43.2667" stroke="white" stroke-opacity="0.2"/>
<rect x="540.1" y="504.833" width="43.2667" height="43.2667" stroke="white" stroke-opacity="0.2"/>
<rect x="33" y="32" width="506" height="506" rx="89" stroke="black" stroke-width="10"/>
<rect x="103.5" y="102.5" width="365" height="365" rx="43.5" fill="#0B3F8D" stroke="black" stroke-width="5"/>
<rect x="115" y="114" width="342" height="342" rx="35" fill="black"/>
</g>
<line x1="229" y1="36.1529" x2="229" y2="104.858" stroke="black" stroke-width="8"/>
<line x1="241.2" y1="36.1529" x2="241.2" y2="104.858" stroke="black" stroke-width="8"/>
<line x1="253.4" y1="36.1529" x2="253.4" y2="104.858" stroke="black" stroke-width="8"/>
<line x1="265.6" y1="36.1529" x2="265.6" y2="104.858" stroke="black" stroke-width="8"/>
<line x1="277.8" y1="36.1529" x2="277.8" y2="104.858" stroke="black" stroke-width="8"/>
<line x1="290" y1="36.1529" x2="290" y2="104.858" stroke="black" stroke-width="8"/>
<line x1="302.2" y1="36.1529" x2="302.2" y2="104.858" stroke="black" stroke-width="8"/>
<line x1="314.4" y1="36.1529" x2="314.4" y2="104.858" stroke="black" stroke-width="8"/>
<line x1="326.6" y1="36.1529" x2="326.6" y2="104.858" stroke="black" stroke-width="8"/>
<line x1="338.8" y1="36.1529" x2="338.8" y2="104.858" stroke="black" stroke-width="8"/>
<line x1="351" y1="36.1529" x2="351" y2="104.858" stroke="black" stroke-width="8"/>
<line x1="229" y1="469.295" x2="229" y2="538" stroke="black" stroke-width="8"/>
<line x1="241.2" y1="469.295" x2="241.2" y2="538" stroke="black" stroke-width="8"/>
<line x1="253.4" y1="469.295" x2="253.4" y2="538" stroke="black" stroke-width="8"/>
<line x1="265.6" y1="469.295" x2="265.6" y2="538" stroke="black" stroke-width="8"/>
<line x1="277.8" y1="469.295" x2="277.8" y2="538" stroke="black" stroke-width="8"/>
<line x1="290" y1="469.295" x2="290" y2="538" stroke="black" stroke-width="8"/>
<line x1="302.2" y1="469.295" x2="302.2" y2="538" stroke="black" stroke-width="8"/>
<line x1="314.4" y1="469.295" x2="314.4" y2="538" stroke="black" stroke-width="8"/>
<line x1="326.6" y1="469.295" x2="326.6" y2="538" stroke="black" stroke-width="8"/>
<line x1="338.8" y1="469.295" x2="338.8" y2="538" stroke="black" stroke-width="8"/>
<line x1="351" y1="469.295" x2="351" y2="538" stroke="black" stroke-width="8"/>
<circle cx="398" cy="177" r="35" fill="#0B3F8D"/>
<path d="M113 265L255.5 265L296 305.5" stroke="#0B3F8D" stroke-width="5" stroke-linecap="round"/>
<path d="M461.5 305.5L316.5 305.5L276 265" stroke="#0B3F8D" stroke-width="5" stroke-linecap="round"/>
</svg>
